<?xml version="1.0" encoding="UTF-8"?>
<svg id="Capa_1" xmlns="http://www.w3.org/2000/svg" version="1.1" viewBox="0 0 48 48">
  <!-- Generator: Adobe Illustrator 29.5.0, SVG Export Plug-In . SVG Version: 2.1.0 Build 137)  -->
  <defs>
    <style>
      .st0 {
        fill: #fff;
      }
    </style>
  </defs>
  <path class="st0" d="M13.2,14.37s.04.28.18.42c2.19,2.14,4.09,4.67,5.44,7.35.3.05.17-.23.18-.42.03-.5-.05-.99.04-1.48.31-1.73,2.06-2.5,3.76-2.66.08,1.71.13,3.5-1.75,4.36-.55.25-1.87.33-1.87.78,1.77,3.49,2.89,7.36,2.72,11.25h-.54c.15-3.15-.68-6.25-1.79-9.19-3.73-1.45-7.72-2.4-11.8-2.39-1.22,2.7-2.82,5.23-5.48,6.89-.17.11-1.3.9-1.4.38-.05-.27,2.4-1.65,2.72-2.02,1.44-1.55,2.96-3.27,3.44-5.33l-6.89.59c-.19-.13-.22-.23,0-.34.39-.2,2.78-.51,3.38-.57,2.45-.25,4.86-.14,7.31-.02l-2.16-.94c-1.99-1.33-2.1-3.43-1.45-5.48,3.71.49,4.86,3.46,3.8,6.59l4.17.68c-.57-.71-1.35-1.12-1.46-2.11-.06-.52.3-2.49.97-2.44,2.09,1.03,2.06,3.04.85,4.71l3.62,1.18c-1.08-2.78-2.96-5.36-4.9-7.69-.24-.29-1.6-1.59-1.62-1.7-.06-.26.38-.53.54-.42Z"/>
  <path class="st0" d="M37.48,26.03s.05-.16-.11-.17c-1.48-.17-2.97-.28-4.42-.67,1.25,1.18,1.94,2.29,1.07,3.95-.56,1.05-1.1.52-1.69-.24-1.13-1.47-.51-2.37.08-3.87l-3.44-1.19c1.35,3.49,3.77,6.59,6.43,9.29.23.15-.06.48-.19.51-.35.07-2.45-2.69-2.9-3.04-.05,1.25-.29,2.72-1.6,3.37-2-1.4-1.76-4.06.24-5.31l-1.99-3.47c-.23-.16-.91.58-1.08.77-1.72,1.82-1.92,4.37-2.18,6.67h-.54s.36-3.55.36-3.55c-.85.87-1.99,1.12-3.17.68.2-1.89,1.85-2.77,3.73-2.1.54-1.2,1.32-2.38,2.54-3.07-1.57-3.3-2.58-6.91-2.37-10.55.68-.73.52,2.25.54,2.45.25,2.34.93,4.65,1.85,6.81,1.45.36,2.82.97,4.27,1.34,5.03,1.28,9.36,1.12,14.44.38.18-.03.56-.28.64.1s-.39.37-.62.43c-2.49.67-7.3.75-9.89.5.64.41,1.45.57,2.08,1.01,1.94,1.37,1.84,3.4,1.36,5.41-3.51-.52-4.91-3.15-3.9-6.26l.45-.16Z"/>
  <path class="st0" d="M26.07,0c.13.12-.43,2.98-.56,3.45-.15.57-.39,1.23-.62,1.78-.24.58-1.33,2.01-1.01,2.46.34.48,1.66,1.46,2.21,1.84,2.6,1.79,5.8,2.74,9.04,2.63-.77-2.99,1.13-5.79,4.54-5.67.75,2.47-.52,5.24-3.45,5.51l.18.26,8.7-.68c.07.51-2.04.66-2.48.73-1.94.3-3.91.35-5.86.54.84,1.55,2.65,2.34,4.41,2.7l.12.51c-2.19-.43-4.01-1.38-5.19-3.18-6.28-.03-10.96-2.35-14.52-7.07-.42-.56-2.96-4.62-2.57-4.95.15-.13.44-.05.59.21.91,1.58,1.37,3.59,2.78,5.01l.89.86c1.54-2.05,2.07-4.47,2.27-6.93h.54Z"/>
  <path class="st0" d="M45.46,33.8v.51s-6.34-.17-6.34-.17c2.14,1.4,2.87,3.17,1.52,5.42-2.6-.65-3.31-3.39-1.89-5.42l-2.9.17c.55,2.68,2.83,5.34,5.44,6.59,0,1-1.26,0-1.72-.34-2.08-1.56-3.55-3.74-4.37-6.09-3.25.14-6.61,1.19-9.43,2.69-.5.27-1.71,1.23-2.04,1.31-1.54.41.74-1.2,1.05-1.39,5.9-3.69,13.84-3.73,20.68-3.27Z"/>
  <path class="st0" d="M10.67,43.44c-.2.06-.51-.12-.54-.26-.08-.36,2.11-3.09,2.54-3.54,1.29-1.35,2.88-2.37,4.34-3.55,0-.6-8.57-1.94-9.6-1.78.12,1.36-.21,2.84-1.68,3.41-2.95,1.15-1.97-1.48-.84-2.82l1.62-.77c-.51.01-1.03-.03-1.54,0-.65.04-2.57.47-2.99.25-.22-.11-.2-.21,0-.34,2.8-.66,5.75-.41,8.58-.06.95.12,7.57,1.22,7.54,2.09-2.96,1.92-5.95,4.19-7.43,7.35Z"/>
  <path class="st0" d="M25.35,33.8c.03,2.28-1.16,3.64-3.62,3.8,2.55,1.79,4.88,4.11,6.29,6.81.36.69,1.43,2.43.6,2.91-.67-2.32-1.97-4.51-3.72-6.25-1.58,1.91-2.13,4.57-2.27,6.93h-.54c.05-2.66.92-5.21,2.33-7.5-1.23-1.3-2.76-2.32-4.32-3.24.39-.51.86-.1,1.26.08-.21-2.4,1.44-3.88,3.99-3.55Z"/>
  <path class="st0" d="M33.33,14.72c2.95.31,4.5,2.38,4.13,5.12-.21,1.53-.7,1.24-1.95.67-2.53-1.15-2.97-3.41-2.18-5.8Z"/>
  <path class="st0" d="M13.57,34.31c-3.39-.74-4.98-3.27-3.79-6.41,3.57.38,4.87,3.39,3.79,6.41Z"/>
  <path class="st0" d="M29.83,42.13c2.42-.27,4.03,1.25,4.5,3.34-2.94,1.61-5.5.24-6.43-2.6.08-.32,1.57-.69,1.94-.73Z"/>
  <path class="st0" d="M12.86,13.5c3.1-.1,6.46-1.06,9.16-2.48.5-.26,2.1-1.46,2.36-1.52s.6.08.6.23c0,.2-1.96,1.39-2.3,1.57-6.04,3.31-13.36,3.36-20.17,2.91.23-1,2.29-.35,3.16-.33,2.22.06,4.42-.04,6.62-.18-.5-2.09-1.92-4.07-3.62-5.49-.46-.39-1.18-.7-1.59-1.05-.64-.54-.18-.7.53-.33,2.35,1.2,4.57,4.27,5.25,6.68Z"/>
  <path class="st0" d="M20.08,29.23c-3,.9-5.54-.79-5.59-3.69,3.09-.88,5.31.82,5.59,3.69Z"/>
  <path class="st0" d="M33.68,22.48c-3.06.79-5.5-.8-5.54-3.73,3.1-.88,5.32.83,5.54,3.73Z"/>
  <path class="st0" d="M10.45,35.86c1.35-.17,2.85.82,3.66,1.74-1.92,2.32-4.63,2.37-6.7.17.75-.78,1.87-1.76,3.03-1.91Z"/>
  <path class="st0" d="M9.76,13.01c-2.86.71-5.26-.9-5.23-3.7,3.05-.87,4.87,1.02,5.23,3.7Z"/>
  <path class="st0" d="M23.3,23.36c1.38-.27,2.99.39,3.66,1.54-1.58,2.02-4.46,2.27-5.95.05.54-.61,1.44-1.43,2.29-1.59Z"/>
  <path class="st0" d="M43.46,15.55c.71,1.61,1.42,2.87.18,4.48-.23.31-1.32,1.36-1.7,1.26-1.72-1.97-1.08-4.86,1.51-5.74Z"/>
  <path class="st0" d="M6.31,26.71c1.29,2.13,1.02,4.77-1.62,5.74-1.44-2.05-1.17-5.02,1.62-5.74Z"/>
  <path class="st0" d="M30.42,5.24c-2.93-.36-4.06-2.49-3.25-5.06,2.91.32,3.98,2.56,3.25,5.06Z"/>
  <path class="st0" d="M20.99,47.83c-2.93-.36-4.06-2.49-3.25-5.06,2.91.32,3.98,2.56,3.25,5.06Z"/>
  <path class="st0" d="M16.83,42.08s.17.05.19-.1c.23-1.6.21-3.21,0-4.8h.54c.3,2.79.06,6.66-1.26,9.22-.35.68-.84.78-.61-.06.45-1.61.85-2.5,1.14-4.26-.46.43-.61,1.15-1.09,1.6-1.08,1.03-2.66.89-3.98.42.22-.96.97-2.42,2.04-2.74.69-.21,3.28-.39,3.03.72Z"/>
  <path class="st0" d="M36.4,3.89c-.58,2.22-2.56,3.66-5,2.54.15-2.47,2.62-3.54,5-2.54Z"/>
  <path class="st0" d="M22.36.34c2.05,1.19,2.83,3.45,1.07,5.23-2.3-1.05-2.64-3.41-1.07-5.23Z"/>
  <path class="st0" d="M20.8,31.62c-.59,1.55-2.22,2.48-3.97,1.93-1.56-.49-1.63-1.06-.37-2.03,1.56-1.21,2.75-.74,4.34.1Z"/>
  <path class="st0" d="M24.45,42.43c.34-.22,1.6.97,1.81,1.26.89,1.27.45,2.82-.45,3.97-2.16-1.29-2.61-3.14-1.35-5.23Z"/>
  <path class="st0" d="M16.11,6.76c-.69-2.37.26-3.97,2.71-4.73.98,2.13-.07,4.62-2.71,4.73Z"/>
  <path class="st0" d="M20.45,6.76c.99,2.11.66,4.04-1.72,5.05-1.57-1.76-.65-4.53,1.72-5.05Z"/>
  <path class="st0" d="M14.24,8.15c.86-.16,1.84.16,2.59.56l.16.3c-.91,2.05-3.13,2.83-5.03,1.36-.21-.69,1.56-2.08,2.29-2.22Z"/>
  <path class="st0" d="M20.04,39.59c.8-.15,2.4.18,2.95.72.58.57-1.22,1.89-1.81,2.03-.76.19-3.32-.18-3.25-.99.05-.51,1.54-1.65,2.11-1.76Z"/>
  <path class="st0" d="M27.7,41.24c-1.07-2.13-.65-4.03,1.71-5.07,1.5,1.83.71,4.41-1.71,5.07Z"/>
  <path class="st0" d="M11.06,8.93c-.11-.06-.86-1.33-.94-1.57-.49-1.54.17-2.62,1.37-3.64,1.24,1.06,1.73,2.38,1.09,3.88-.16.38-.98,1.61-1.52,1.33Z"/>
  <path class="st0" d="M27.11,5.62c.96-.19,2.05.14,2.83.66.73.49-.87,1.74-1.47,1.96-.99.37-2.4.21-3.19-.48s1.06-1.99,1.83-2.14Z"/>
  <path class="st0" d="M33.45,36.88c.63-.12,2.89.24,2.69.98-.22.83-1.65,1.94-2.58,2.02-.63.05-2.52-.31-2.4-1.05.09-.55,1.67-1.83,2.28-1.94Z"/>
  <path class="st0" d="M20.27,14.2c.76,2.25-.3,4.29-2.9,4.56-.68-2.29.31-4.19,2.9-4.56Z"/>
  <path class="st0" d="M33.87,42.24c.58-2.1,3.14-3.21,5.06-1.57-.85,2.22-2.88,2.77-5.06,1.57Z"/>
  <path class="st0" d="M46.54,30.94c-.46,2.21-2.97,3.29-4.99,1.86.75-2.27,2.76-2.88,4.99-1.86Z"/>
  <path class="st0" d="M20.29,12.7c1.93-1.27,4.13-.8,5.04,1.23-1.74,1.53-4.51.97-5.04-1.23Z"/>
  <path class="st0" d="M38.16,21.5c.67-.1,1.36,0,1.96.29-.06,1.95-2.29,3.24-4.2,2.21.05-1.12,1.01-2.32,2.24-2.5Z"/>
  <path class="st0" d="M46.72,29.24c-2.11.61-4.03-.43-4.09-2.54,2.15-.72,4.01.4,4.09,2.54Z"/>
  <path class="st0" d="M4.87,26.02c-2.02.97-4.1.29-4.51-1.84,2.03-1.02,3.94-.24,4.51,1.84Z"/>
  <path class="st0" d="M47.8,23.82c-2.08.81-3.85.34-4.52-1.76,1.86-1.32,4.16-.25,4.52,1.76Z"/>
  <path class="st0" d="M5.6,21.29c-2.16.71-4.15-.36-4.15-2.52,2.25-.68,3.79.45,4.15,2.52Z"/>
  <path class="st0" d="M7.96,26.19c.24-1.98,2.29-3.22,4.27-2.2-.42,2.09-2.12,3.06-4.27,2.2Z"/>
  <path class="st0" d="M32.04,16.22c-1.95.65-4.06-.12-4.08-2.2,1.84-1.04,4.01.36,4.08,2.2Z"/>
  <path class="st0" d="M5.6,15.04c-.12,2.13-2.09,3.18-4.17,2.36.61-2.05,1.86-2.94,4.17-2.36Z"/>
  <path class="st0" d="M45.99,15.03c-1.51.4-2.97.26-3.72-1.17-.59-1.12.05-1.41,1.27-1.37,1.37.04,2.46,1.33,2.44,2.53Z"/>
  <path class="st0" d="M9.17,39.58c.84-.13,2.41.86,1.87,1.59-.81,1.09-3.13.89-3.44-.21-.14-.51,1.09-1.3,1.57-1.37Z"/>
  <path class="st0" d="M47.63,18.59c.13.82-.97.82-1.57,1.15-2.4,1.31-4.39,3.21-5.67,5.53-1.07.26.18-1.36.46-1.76,1.57-2.2,4.07-4.1,6.78-4.92Z"/>
  <path class="st0" d="M30.6,10.82c-.48-3.3.07-6.78,1.54-9.8.31.21.28.4.24.71-.11.78-.75,2.06-.97,3-.39,1.73-.46,3.23-.46,4.99,0,.47.48,1.08-.35,1.09Z"/>
  <path class="st0" d="M42.83,34.32c1.46.69,1.86,2.4.72,3.54-1.48-.67-1.79-2.39-.72-3.54Z"/>
  <path class="st0" d="M26.98,21.97c-1.79.56-3.01.03-3.44-1.69,1.72-.57,2.99.08,3.44,1.69Z"/>
</svg>